# xmcd
#
# Track frame offsets:
#	150
#	21871
#	48470
#	72638
#	92860
#	115517
#	135751
#	154179
#	174641
#
# Disc length: 2643 seconds
#
# Revision: 0
# Processed by: cddbd v1.5.2PL0 Copyright (c) Steve Scherf et al.
# Submitted via: audiograbber 1.83.01
#
DISCID=720a5109
DTITLE=Bruce Hornsby and The Range - The Way It Is
DYEAR=1986
DGENRE=Country/Pop
TTITLE0=On the Western Skyline
TTITLE1=Every Little Kiss
TTITLE2=Mandolin Rain
TTITLE3=The Long Race
TTITLE4=The Way It Is
TTITLE5=Down The Road Tonight
TTITLE6=The Wild Frontier
TTITLE7=The River Runs Low
TTITLE8=The Red Plains                 
EXTD=
EXTT0=
EXTT1=
EXTT2=
EXTT3=
EXTT4=
EXTT5=
EXTT6=
EXTT7=
EXTT8=
PLAYORDER=
